This is a recap of previous episodes for the build up to the finale next week. Enjoy!

Video
Format                           : MPEG-4 Visual
Codec ID                         : XVID
Duration                         : 44mn 0s
Bit rate                         : 1 001 Kbps
Width                            : 624 pixels
Height                           : 352 pixels
Display aspect ratio             : 16:9
Frame rate                       : 25.000 fps
Bits/(Pixel*Frame)               : 0.182
Stream size                      : 315 MiB (90%)
Writing library                  : XviD 1.2.1 (UTC 2008-12-04)

Audio
Format                           : MPEG Audio
Format profile                   : Layer 3
Mode                             : Joint stereo
Codec ID/Hint                    : MP3
Duration                         : 43mn 59s
Bit rate mode                    : Constant
Bit rate                         : 96.0 Kbps
Channel(s)                       : 2 channels
Sampling rate                    : 48.0 KHz
Bit depth                        : 16 bits
Stream size                      : 30.2 MiB (9%)
